<svg width="210" height="42" viewBox="0 0 210 42" fill="none" xmlns="http://www.w3.org/2000/svg">
<g clip-path="url(#clip0_129_245)">
<path fill-rule="evenodd" clip-rule="evenodd" d="M209.976 9.7133C209.968 9.59205 209.931 9.47459 209.867 9.37185C209.802 9.26911 209.713 9.18453 209.608 9.12564C209.133 8.88423 208.438 8.7197 207.026 8.7197C203.838 8.7197 201.018 10.3151 199.788 12.9845V9.72377C199.788 9.65654 199.775 9.58991 199.75 9.52774C199.724 9.46556 199.687 9.40922 199.64 9.3616C199.593 9.31398 199.537 9.27613 199.475 9.25035C199.414 9.22457 199.348 9.21127 199.281 9.21127H194.507C194.44 9.21127 194.374 9.22457 194.313 9.25035C194.251 9.27613 194.195 9.31398 194.148 9.3616C194.101 9.40922 194.064 9.46556 194.038 9.52774C194.013 9.58991 194 9.65654 194 9.72377V31.7059C194 31.9876 194.226 32.2167 194.507 32.2167H199.508C199.575 32.2167 199.641 32.2035 199.702 32.1779C199.764 32.1522 199.82 32.1145 199.867 32.067C199.914 32.0196 199.951 31.9633 199.976 31.9013C200.002 31.8394 200.015 31.773 200.015 31.7059V21.8188C200.015 17.4017 203.062 15.2062 207.026 15.2062C207.951 15.2062 208.874 15.4127 209.337 15.5667C209.655 15.6716 209.976 15.4091 209.976 15.0715V9.7133ZM178.02 26.8218C174.601 26.8218 171.958 24.3851 171.958 20.7045C171.958 17.0239 174.603 14.5853 178.02 14.5853C181.437 14.5853 184.079 17.0239 184.079 20.7045C184.079 24.3851 181.437 26.8218 178.02 26.8218ZM178.02 8.64795C171.002 8.64795 165.763 13.527 165.763 20.7045C165.763 27.882 171.004 32.7591 178.02 32.7591C185.034 32.7591 190.275 27.882 190.275 20.7062C190.275 13.5269 185.034 8.64795 178.02 8.64795ZM150.195 26.8235C146.777 26.8235 144.134 24.3851 144.134 20.7045C144.134 17.0239 146.777 14.5853 150.195 14.5853C153.612 14.5853 156.253 17.0239 156.253 20.7045C156.253 24.3851 153.612 26.8235 150.195 26.8235ZM150.195 8.64795C143.178 8.64795 137.937 13.527 137.937 20.7045C137.937 27.882 143.178 32.7591 150.195 32.7591C157.209 32.7591 162.45 27.882 162.45 20.7045C162.45 13.527 157.209 8.64795 150.195 8.64795ZM122.409 26.8795C118.992 26.8795 116.439 24.441 116.439 20.715C116.439 16.9871 118.992 14.5485 122.409 14.5485C125.782 14.5485 128.379 16.8962 128.379 20.715C128.379 24.4865 125.782 26.8795 122.409 26.8795ZM133.704 0.00976497H128.703C128.569 0.00976497 128.44 0.0636631 128.345 0.159458C128.25 0.255252 128.196 0.385082 128.196 0.520556V12.5246C126.647 10.3152 124.096 8.61122 120.543 8.61122C114.983 8.61122 110.244 12.9392 110.244 20.715C110.244 28.4907 114.982 32.8151 120.632 32.8151C123.959 32.8151 126.556 31.3422 128.198 28.9963V31.7059C128.198 31.9876 128.424 32.2167 128.701 32.2167H133.704C133.982 32.2167 134.209 31.9893 134.209 31.7059V0.520556C134.209 0.385385 134.156 0.255843 134.061 0.160098C133.967 0.0643538 133.838 0.0102279 133.704 0.00976497ZM106.931 25.2527C106.931 30.5007 103.15 32.7538 97.0922 32.7538C92.9048 32.7538 89.304 31.6168 87.2441 29.2622C87.1663 29.1698 87.1225 29.0532 87.1203 28.932C87.1181 28.8109 87.1575 28.6926 87.232 28.5974L90.1231 24.8083C90.1676 24.7511 90.224 24.7043 90.2883 24.6712C90.3526 24.6382 90.4232 24.6196 90.4954 24.6168C90.5675 24.614 90.6394 24.6269 90.706 24.6548C90.7727 24.6828 90.8325 24.7251 90.8813 24.7787C92.4084 26.3583 94.7581 27.3239 97.6839 27.3239C99.3672 27.3239 100.735 26.8655 100.735 25.5762C100.735 24.3342 99.506 24.058 95.6778 23.2288C92.3061 22.5395 88.1135 20.9756 88.1135 15.9602C88.1135 11.3123 91.7611 8.64453 97.7272 8.64453C101.654 8.64453 104.478 9.84109 106.466 11.7234C106.657 11.9036 106.675 12.2079 106.513 12.4161L103.77 16.0128C103.729 16.068 103.678 16.1141 103.62 16.1484C103.561 16.1827 103.495 16.2042 103.428 16.2118C103.36 16.2194 103.292 16.2128 103.227 16.1924C103.162 16.1719 103.102 16.138 103.051 16.0931C101.706 14.8808 99.4696 14.1199 97.2726 14.1199C95.4054 14.1199 94.3573 14.7183 94.3573 15.7294C94.3573 16.8805 95.5893 17.1567 99.6431 18.0314C103.605 18.9061 106.931 20.4211 106.931 25.2527ZM83.8064 25.2666C83.8064 30.5128 80.0233 32.7679 73.9653 32.7679C69.7796 32.7679 66.1788 31.6307 64.1189 29.2743C64.0413 29.1823 63.9975 29.0661 63.995 28.9453C63.9925 28.8245 64.0313 28.7065 64.1051 28.6113L66.9962 24.8205C67.0411 24.7636 67.0976 24.7172 67.1619 24.6845C67.2263 24.6517 67.297 24.6335 67.369 24.6309C67.441 24.6282 67.5128 24.6412 67.5793 24.6691C67.6459 24.697 67.7056 24.7391 67.7545 24.7925C69.2834 26.3704 71.633 27.338 74.557 27.338C76.242 27.338 77.6095 26.8796 77.6095 25.5886C77.6095 24.3466 76.3792 24.0718 72.5528 23.2427C69.1793 22.5517 64.9866 20.9877 64.9866 15.9741C64.9866 11.3262 68.6343 8.65841 74.6021 8.65841C78.5275 8.65841 81.3492 9.85322 83.3396 11.7373C83.5305 11.9174 83.5478 12.2201 83.3881 12.43L80.6429 16.0267C80.4694 16.2541 80.1396 16.2996 79.9261 16.1072C78.5795 14.8949 76.3445 14.1321 74.1475 14.1321C72.2786 14.1321 71.2304 14.7322 71.2304 15.7433C71.2304 16.8944 72.4625 17.1708 76.5163 18.0455C80.4798 18.9184 83.8064 20.4367 83.8064 25.2666ZM53.8319 22.9226C53.8319 25.4521 51.7842 27.6615 48.5929 27.6615C46.4967 27.6615 45.3583 26.6941 45.3583 25.2211C45.3583 23.9336 46.3161 22.9662 48.1834 22.6898L53.8319 22.0007V22.9226ZM49.8701 8.70389C45.0979 8.70389 41.5041 10.3168 39.8972 13.5058C39.8442 13.6165 39.8315 13.7425 39.8617 13.8616C39.8919 13.9806 39.9628 14.0852 40.062 14.1567L43.708 16.7877C43.937 16.9522 44.2598 16.8978 44.3968 16.6476C45.4103 14.8073 47.6766 14.1793 49.8701 14.1793C52.5581 14.1793 53.8319 15.1451 53.8319 16.4798V16.8471C53.8319 17.3999 53.5143 17.6762 52.6484 17.7689L46.4064 18.3201C42.2156 18.7329 39.118 21.357 39.118 25.5431C39.118 29.7765 42.3058 32.7205 46.816 32.7205C50.37 32.7205 52.6484 30.9731 53.8319 29.1328V31.7497C53.8319 32.0331 54.0575 32.2622 54.3386 32.2622H59.3399C59.4743 32.2622 59.6032 32.2083 59.6982 32.1125C59.7932 32.0167 59.8466 31.8869 59.8466 31.7514V18.0438C59.8466 11.6482 56.5216 8.70389 49.8701 8.70389ZM34.9913 0.518848V31.7042C34.9913 31.9859 34.7658 32.215 34.4846 32.215H29.4382C29.3039 32.215 29.175 32.1611 29.0799 32.0653C28.9849 31.9695 28.9315 31.8397 28.9315 31.7042V0.510093C28.9315 0.231949 29.1537 0.00805664 29.4279 0.00805664H34.4846C34.764 0.00805664 34.9913 0.235456 34.9913 0.518848ZM12.1647 26.8551C8.74612 26.8551 6.19517 24.4165 6.19517 20.6904C6.19517 16.9643 8.74785 14.524 12.1647 14.524C15.5833 14.524 18.0874 16.8716 18.0874 20.6904C18.0874 24.462 15.5816 26.8551 12.1647 26.8551ZM23.4583 9.18671H18.464C18.3278 9.18671 18.1972 9.24143 18.1008 9.33854C18.0045 9.43565 17.9503 9.56722 17.9503 9.70455V12.4091C16.6748 10.3378 14.0319 8.63407 10.5248 8.63407C4.87457 8.63407 0 12.9146 0 20.5994C0 28.2353 4.6472 32.4215 10.707 32.4215C13.9868 32.4215 16.5377 31.0413 18.0423 28.8791V30.3519C18.0423 33.6634 16.4458 36.2875 11.3439 36.2875C8.77905 36.2875 6.71922 35.425 4.91273 33.8104C4.85879 33.7602 4.79446 33.7227 4.72441 33.7006C4.65436 33.6785 4.5804 33.6723 4.5077 33.6825C4.43501 33.6927 4.36541 33.719 4.30403 33.7596C4.24264 33.8001 4.19095 33.854 4.15267 33.9172L1.88807 37.7517C1.5948 38.2468 1.63464 38.5267 1.81859 38.6894C4.14741 40.7309 7.1739 41.992 11.573 41.992C21.1399 41.992 23.965 36.6111 23.965 30.6739V9.69942C23.9652 9.6322 23.9523 9.56557 23.927 9.50339C23.9016 9.44122 23.8643 9.38466 23.8173 9.33704C23.7702 9.28943 23.7143 9.25157 23.6527 9.22579C23.5911 9.20001 23.525 9.18671 23.4583 9.18671Z" fill="#0CAA41"/>
</g>
<defs>
<clipPath id="clip0_129_245">
<rect width="210" height="42" fill="white"/>
</clipPath>
</defs>
</svg>
